<svg width="675" height="675" viewBox="0 0 675 675" fill="none" xmlns="http://www.w3.org/2000/svg">
<path d="M604.699 50.1863H334.575V442.581H604.699V50.1863Z" fill="#F3F3F3"/>
<path d="M141.064 529.65H60.1875V625.804H141.064V529.65Z" fill="#FD8369"/>
<path d="M245.571 456.913H164.694V625.804H245.571V456.913Z" fill="#FD8369"/>
<path d="M350.072 373.264H269.196V625.809H350.072V373.264Z" fill="#FD8369"/>
<path d="M203.839 464.107H194.445V470.992H203.839V464.107Z" fill="#DE8E68"/>
<path d="M306.894 375.064H297.5V381.949H306.894V375.064Z" fill="#DE8E68"/>
<path d="M258.294 268.256C263.919 268.256 309.049 274.629 328.792 284.771C326.076 297.996 308.323 375.896 308.323 375.896H297.27C297.27 375.896 293.107 310.314 292.207 310.86C286.228 313.937 262.496 321.699 237.133 322.076" fill="#327ACE"/>
<path d="M258.294 268.256L204.188 465.013H194.445V268.256" fill="#2B6CB8"/>
<path d="M268.312 185.563C271.041 186.75 280.389 194.563 282.06 197.376C297.326 178.369 322.504 159.187 324.562 156.971C326.621 154.755 327.262 142.408 327.262 139.708C327.262 137.008 330.986 129.814 334.575 129.814V162.186C334.575 162.186 292.444 221.276 285.508 221.276C281.008 221.276 258.784 211.511 255.696 208.558" fill="#DE8E68"/>
<path d="M234 174.684C239.558 165.684 271.688 179.623 271.688 183.926C271.688 188.229 259.774 208.046 254.436 207.765C250.183 207.562 228.246 184.027 234 174.684Z" fill="#FCC486"/>
<path d="M226.198 161.629C267.024 161.629 264.741 263.284 258.294 268.256C251.848 273.229 198.939 275.642 194.102 268.256C189.264 260.871 187.391 161.629 226.198 161.629Z" fill="#FED385"/>
<path d="M182.042 193.719C174.791 195.998 156.139 231.165 156.139 236.531C156.139 247.781 194.119 297.332 198.951 297.332C200.964 293.839 204.187 286.594 204.187 286.594C204.187 286.594 181.372 244.046 177.187 238.545C180.81 235.17 193.961 217.474 196.11 211.973C198.259 206.471 197.454 194.659 197.454 194.659L182.042 193.719Z" fill="#DE8E68"/>
<path d="M208.091 172.507C217.35 177.57 205.138 210.375 200.841 210.645C196.543 210.915 176.13 200.008 176.13 194.664C176.13 190.367 198.461 167.226 208.091 172.507Z" fill="#FED892"/>
<path d="M194.445 469.536V477.861H219.533V474.84L204.3 469.536H194.445Z" fill="black"/>
<path d="M297.09 381.189V389.514H322.183V386.499L306.951 381.189H297.09Z" fill="black"/>
<path d="M604.699 50.1863H334.575V75.4594H604.699V50.1863Z" fill="#DFDFDF"/>
<path d="M623.812 107.291H396.956V171.928H623.812V107.291Z" fill="#DFDFDF"/>
<path d="M613.018 119.801H410.203V125.657H613.018V119.801Z" fill="#F9F9F9"/>
<path d="M613.018 133.751H410.203V139.607H613.018V133.751Z" fill="#F9F9F9"/>
<path d="M613.018 147.707H410.203V153.563H613.018V147.707Z" fill="#F9F9F9"/>
<path d="M623.812 197.904H396.956V262.541H623.812V197.904Z" fill="#DFDFDF"/>
<path d="M427.174 249.469C437.805 249.469 446.423 240.851 446.423 230.22C446.423 219.589 437.805 210.971 427.174 210.971C416.543 210.971 407.925 219.589 407.925 230.22C407.925 240.851 416.543 249.469 427.174 249.469Z" fill="#F9F9F9"/>
<path d="M608.31 210.971H460.625V229.59H608.31V210.971Z" fill="#F9F9F9"/>
<path d="M608.31 235.901H460.625V242.741H608.31V235.901Z" fill="#F9F9F9"/>
<path d="M574.048 290.576H360.979V395.404H574.048V290.576Z" fill="white"/>
<path d="M236.329 141.626H220.157V164.571C220.157 170.269 236.329 170.364 236.329 164.571V141.626Z" fill="#D37C59"/>
<path d="M248.147 131.107C245.301 118.918 236.25 110.616 227.931 112.545C220.804 114.232 216.534 122.85 217.243 132.958C216.017 133.312 214.96 134.097 214.267 135.168C213.573 136.239 213.289 137.524 213.467 138.787C213.644 140.051 214.272 141.208 215.235 142.046C216.197 142.883 217.43 143.346 218.706 143.347C219.03 143.344 219.354 143.312 219.673 143.252C223.532 152.544 231.154 158.332 238.236 156.679C246.555 154.749 250.993 143.291 248.147 131.107Z" fill="#DE8E68"/>
<path d="M221.372 136.806C223.498 136.806 223.869 133.869 223.869 131.265C223.869 127.778 227.182 124.628 229.224 124.031C232.92 122.963 234.804 122.715 237.043 121.5C239.282 120.285 241.948 118.457 241.948 118.457C242.939 119.65 243.839 120.916 244.642 122.243C246.696 121.68 257.451 119.115 257.451 111.409C257.451 106.346 253.198 105.683 251.263 104.096C249.204 102.409 250.087 97.3069 244.513 97.3069C239.518 97.3069 237.06 102.555 233.865 104.574C230.001 107.021 222.418 105.053 217.423 110.199C214.999 112.697 214.431 118.845 212.923 121.095C210.864 124.144 207.298 125.033 207.298 129.684C207.298 133.099 210.195 138.864 213.682 139.708C213.682 136.333 214.914 133.104 217.412 133.104C220.129 133.104 218.25 136.806 221.372 136.806Z" fill="#FD8369"/>
</svg>
