<?xml version="1.0" encoding="utf-8"?>
<svg xmlns="http://www.w3.org/2000/svg" xmlns:xlink="http://www.w3.org/1999/xlink" style="margin: auto; background: none; display: block; shape-rendering: auto;" width="200px" height="200px" viewBox="0 0 100 100" preserveAspectRatio="xMidYMid">
<g transform="rotate(0 50 50)">
  <rect x="49.5" y="38" rx="0.5" ry="3" width="1" height="6" fill="#3587e8">
    <animate attributeName="opacity" values="1;0" keyTimes="0;1" dur="1.5873015873015872s" begin="-1.455026455026455s" repeatCount="indefinite"></animate>
  </rect>
</g><g transform="rotate(30 50 50)">
  <rect x="49.5" y="38" rx="0.5" ry="3" width="1" height="6" fill="#3587e8">
    <animate attributeName="opacity" values="1;0" keyTimes="0;1" dur="1.5873015873015872s" begin="-1.3227513227513226s" repeatCount="indefinite"></animate>
  </rect>
</g><g transform="rotate(60 50 50)">
  <rect x="49.5" y="38" rx="0.5" ry="3" width="1" height="6" fill="#3587e8">
    <animate attributeName="opacity" values="1;0" keyTimes="0;1" dur="1.5873015873015872s" begin="-1.1904761904761905s" repeatCount="indefinite"></animate>
  </rect>
</g><g transform="rotate(90 50 50)">
  <rect x="49.5" y="38" rx="0.5" ry="3" width="1" height="6" fill="#3587e8">
    <animate attributeName="opacity" values="1;0" keyTimes="0;1" dur="1.5873015873015872s" begin="-1.0582010582010581s" repeatCount="indefinite"></animate>
  </rect>
</g><g transform="rotate(120 50 50)">
  <rect x="49.5" y="38" rx="0.5" ry="3" width="1" height="6" fill="#3587e8">
    <animate attributeName="opacity" values="1;0" keyTimes="0;1" dur="1.5873015873015872s" begin="-0.9259259259259258s" repeatCount="indefinite"></animate>
  </rect>
</g><g transform="rotate(150 50 50)">
  <rect x="49.5" y="38" rx="0.5" ry="3" width="1" height="6" fill="#3587e8">
    <animate attributeName="opacity" values="1;0" keyTimes="0;1" dur="1.5873015873015872s" begin="-0.7936507936507936s" repeatCount="indefinite"></animate>
  </rect>
</g><g transform="rotate(180 50 50)">
  <rect x="49.5" y="38" rx="0.5" ry="3" width="1" height="6" fill="#3587e8">
    <animate attributeName="opacity" values="1;0" keyTimes="0;1" dur="1.5873015873015872s" begin="-0.6613756613756613s" repeatCount="indefinite"></animate>
  </rect>
</g><g transform="rotate(210 50 50)">
  <rect x="49.5" y="38" rx="0.5" ry="3" width="1" height="6" fill="#3587e8">
    <animate attributeName="opacity" values="1;0" keyTimes="0;1" dur="1.5873015873015872s" begin="-0.5291005291005291s" repeatCount="indefinite"></animate>
  </rect>
</g><g transform="rotate(240 50 50)">
  <rect x="49.5" y="38" rx="0.5" ry="3" width="1" height="6" fill="#3587e8">
    <animate attributeName="opacity" values="1;0" keyTimes="0;1" dur="1.5873015873015872s" begin="-0.3968253968253968s" repeatCount="indefinite"></animate>
  </rect>
</g><g transform="rotate(270 50 50)">
  <rect x="49.5" y="38" rx="0.5" ry="3" width="1" height="6" fill="#3587e8">
    <animate attributeName="opacity" values="1;0" keyTimes="0;1" dur="1.5873015873015872s" begin="-0.26455026455026454s" repeatCount="indefinite"></animate>
  </rect>
</g><g transform="rotate(300 50 50)">
  <rect x="49.5" y="38" rx="0.5" ry="3" width="1" height="6" fill="#3587e8">
    <animate attributeName="opacity" values="1;0" keyTimes="0;1" dur="1.5873015873015872s" begin="-0.13227513227513227s" repeatCount="indefinite"></animate>
  </rect>
</g><g transform="rotate(330 50 50)">
  <rect x="49.5" y="38" rx="0.5" ry="3" width="1" height="6" fill="#3587e8">
    <animate attributeName="opacity" values="1;0" keyTimes="0;1" dur="1.5873015873015872s" begin="0s" repeatCount="indefinite"></animate>
  </rect>
</g>
<!-- [ldio] generated by https://loading.io/ --></svg>